<svg width="425" height="757" viewBox="0 0 425 757" fill="none" xmlns="http://www.w3.org/2000/svg">
<path fill-rule="evenodd" clip-rule="evenodd" d="M0 2.17927e-05H425V757.371H0V2.17927e-05Z" fill="#F0ECF9"/>
<path fill-rule="evenodd" clip-rule="evenodd" d="M217.426 597.762C188.506 616.882 184.754 686.941 181 757H425V448.212C414.383 438.729 404.719 435.71 396.61 443.238C375.666 462.683 365.093 552.48 332.763 581.47C300.433 610.46 246.346 578.642 217.426 597.762Z" fill="#6E68E3" fill-opacity="0.94"/>
<path fill-rule="evenodd" clip-rule="evenodd" d="M278 757C264.023 690.855 202.004 641 127.611 641C74.3862 641 27.4951 666.52 0 705.267V757H278Z" fill="#6E68E3" fill-opacity="0.65"/>
<path fill-rule="evenodd" clip-rule="evenodd" d="M323.806 410.471C337.613 410.471 348.806 421.664 348.806 435.471C348.806 449.278 337.613 460.471 323.806 460.471C309.999 460.471 298.806 449.278 298.806 435.471C298.806 421.664 309.999 410.471 323.806 410.471Z" fill="#6E68E3"/>
<path fill-rule="evenodd" clip-rule="evenodd" d="M349.001 357C354.523 357 359 361.477 359 367C359 372.523 354.523 377 349.001 377C343.477 377 339 372.523 339 367C339 361.477 343.477 357 349.001 357Z" fill="#6E68E3"/>
</svg>
