<svg width="1440" height="758" viewBox="0 0 1440 758" fill="none" xmlns="http://www.w3.org/2000/svg">
<path fill-rule="evenodd" clip-rule="evenodd" d="M0 2.17927e-05H1440V757.371H0V2.17927e-05Z" fill="#F0ECF9"/>
<path fill-rule="evenodd" clip-rule="evenodd" d="M827.487 520.473C742.149 548.918 731.076 653.144 720 757.371H1440V297.988C1408.67 283.88 1380.15 279.388 1356.23 290.588C1294.43 319.516 1263.23 453.107 1167.83 496.235C1072.43 539.363 912.825 492.028 827.487 520.473Z" fill="#6E68E3" fill-opacity="0.94"/>
<path fill-rule="evenodd" clip-rule="evenodd" d="M613.515 757.371C582.669 651.054 445.8 570.92 281.623 570.92C164.162 570.92 60.6786 611.939 0 674.22V757.371H613.515Z" fill="#6E68E3" fill-opacity="0.65"/>
<path fill-rule="evenodd" clip-rule="evenodd" d="M1097.03 312.152C1143.75 312.152 1181.63 345.356 1181.63 386.311C1181.63 427.27 1143.75 460.471 1097.03 460.471C1050.3 460.471 1012.43 427.27 1012.43 386.311C1012.43 345.356 1050.3 312.152 1097.03 312.152Z" fill="#6E68E3"/>
<path fill-rule="evenodd" clip-rule="evenodd" d="M1214.53 215.624C1232.94 215.624 1247.87 228.707 1247.87 244.846C1247.87 260.985 1232.94 274.068 1214.53 274.068C1196.12 274.068 1181.2 260.985 1181.2 244.846C1181.2 228.707 1196.12 215.624 1214.53 215.624Z" fill="#6E68E3"/>
</svg>
